<svg width="199" height="210" viewBox="0 0 199 210" fill="none" xmlns="http://www.w3.org/2000/svg">
<path d="M5 36.5789C5 54.0211 42.611 68.1579 89 68.1579C135.389 68.1579 173 54.0211 173 36.5789M5 36.5789C5 19.1368 42.611 5 89 5C135.389 5 173 19.1368 173 36.5789M5 36.5789V99.7368M173 36.5789V99.7368M5 99.7368C5 117.179 42.611 131.316 89 131.316C100.739 131.316 111.921 130.411 122.075 128.779M5 99.7368V162.895C5 180.337 42.611 194.474 89 194.474C90.6485 194.474 92.276 194.453 93.893 194.421M131 173.421H194M162.5 205L194 173.421L162.5 141.842" stroke="black" stroke-width="10" stroke-linecap="round" stroke-linejoin="round"/>
</svg>
