<svg width="200" height="200" viewBox="0 0 200 200" fill="none" xmlns="http://www.w3.org/2000/svg">
<path d="M100.002 33.3303C103.581 33.3306 107.121 34.0992 110.377 35.5846L110.369 35.5927L181.797 68.1122L181.789 68.1204C184.693 69.3857 187.185 71.4472 188.958 74.0774C190.78 76.7799 191.764 79.9577 191.798 83.2164C191.833 86.4767 190.912 89.6792 189.146 92.4209C187.394 95.1384 184.886 97.2784 181.935 98.5976L181.943 98.6051L110.362 131.093C107.515 132.388 104.452 133.131 101.337 133.298L100.002 133.338C96.87 133.338 93.77 132.747 90.8625 131.605L89.6258 131.084L18.2064 98.5159V98.5076C15.2915 97.2034 12.8097 95.0951 11.0612 92.4209C9.28875 89.7092 8.34308 86.5367 8.34308 83.2978C8.34358 80.0598 9.28966 76.8937 11.0612 74.1832C12.8121 71.5049 15.2942 69.3835 18.2146 68.0797L89.6258 35.5927C92.8825 34.1073 96.4217 33.3303 100.002 33.3303ZM25.1237 83.3551L96.5433 115.915L97.3733 116.241C98.2192 116.522 99.1067 116.672 100.002 116.672L100.888 116.623C101.776 116.528 102.645 116.287 103.46 115.915H103.477L175.058 83.4284L175.14 83.3951C175.057 83.3609 174.97 83.3191 174.887 83.2815L103.46 50.7538C102.375 50.2588 101.194 49.9972 100.002 49.997C99.1075 49.997 98.2183 50.1395 97.3733 50.4202L96.5433 50.7457L96.535 50.7538L25.1156 83.249L25.0097 83.2978L25.1237 83.3551Z" fill="black"/>
<path d="M175 133.333L175 83.3333C175 78.731 178.731 75 183.333 75C187.936 75 191.667 78.731 191.667 83.3333V133.333C191.667 137.936 187.936 141.667 183.333 141.667C178.731 141.667 175 137.936 175 133.333Z" fill="black"/>
<path d="M41.6667 133.333L41.6667 104.167C41.6667 99.5643 45.3977 95.8335 50 95.8335C54.6024 95.8335 58.3334 99.5643 58.3334 104.167L58.3334 133.333L58.4229 134.139C58.8607 136.252 61.0688 139.904 68.3675 143.555C76.3218 147.532 87.6992 150 100 150L104.566 149.886C115.091 149.36 124.673 147.035 131.633 143.555C139.973 139.384 141.667 135.208 141.667 133.333V104.167C141.667 99.5643 145.398 95.8335 150 95.8335C154.603 95.8335 158.333 99.5643 158.333 104.167V133.333C158.333 144.718 149.488 153.259 139.079 158.464C128.954 163.525 115.963 166.307 102.661 166.634L100 166.667C85.78 166.667 71.7203 163.863 60.9213 158.464C51.1619 153.584 42.7814 145.773 41.7725 135.434L41.6667 133.333Z" fill="black"/>
</svg>
