<svg width="200" height="200" viewBox="0 0 200 200" fill="none" xmlns="http://www.w3.org/2000/svg">
<path d="M16.6667 50.0001H0V91.6667H0.0833333L0 166.667C0 175.833 7.5 183.333 16.6667 183.333H166.667V166.667H16.6667V50.0001ZM183.333 33.3334H116.667L100 16.6667H50C40.8333 16.6667 33.4167 24.1667 33.4167 33.3334L33.3333 133.333C33.3333 142.5 40.8333 150 50 150H183.333C192.5 150 200 142.5 200 133.333V50.0001C200 40.8334 192.5 33.3334 183.333 33.3334ZM58.3333 125L95.8333 75.0001L125 112.583L145.833 87.5001L175 125H58.3333Z" fill="black"/>
</svg>
